<?xml version="1.0" encoding="utf-8"?>
<!-- Generator: Adobe Illustrator 27.8.1, SVG Export Plug-In . SVG Version: 6.00 Build 0)  -->
<svg version="1.1" xmlns="http://www.w3.org/2000/svg" xmlns:xlink="http://www.w3.org/1999/xlink" x="0px" y="0px"
	 viewBox="0 0 800 800" style="enable-background:new 0 0 800 800;" xml:space="preserve">
<style type="text/css">
	.st0{fill:#FFFFFF;}
	.st1{fill:#FF7815;}
</style>
<g id="Layer_2">
	<circle class="st0" cx="400" cy="400" r="394.6"/>
</g>
<g id="Layer_1">
	<g>
		<g>
			<path class="st1" d="M768.5,244.4c-30.4-71.8-81.2-132.8-145-176C559.7,25.3,482.6,0,400,0c-55.1,0-107.7,11.2-155.6,31.5
				c-71.8,30.4-132.8,81.1-176,145C25.3,240.3,0,317.4,0,400c0,55.1,11.2,107.7,31.5,155.6c30.4,71.8,81.2,132.8,145,176
				C240.3,774.7,317.4,800,400,800c55.1,0,107.7-11.2,155.6-31.5c71.8-30.4,132.8-81.1,176-145C774.7,559.7,800,482.6,800,400
				C800,344.9,788.8,292.3,768.5,244.4z M719.4,534.8C693.1,596.9,649,650,593.7,687.4c-55.4,37.4-121.9,59.3-193.7,59.3
				c-47.8,0-93.3-9.7-134.8-27.3C203.1,693.1,150,649,112.6,593.7C75.2,538.3,53.3,471.7,53.3,400c0-47.8,9.7-93.3,27.3-134.8
				C106.9,203.1,151,150,206.3,112.6C261.7,75.2,328.3,53.3,400,53.3c47.8,0,93.3,9.7,134.8,27.3C596.9,106.9,650,151,687.4,206.3
				c37.4,55.4,59.3,121.9,59.3,193.7C746.7,447.8,737,493.3,719.4,534.8z"/>
		</g>
	</g>
	<g>
		<g>
			<path class="st1" d="M608.7,373.9H426.1V191.3c0-14.4-11.7-26.1-26.1-26.1c-14.4,0-26.1,11.7-26.1,26.1v182.6H191.3
				c-14.4,0-26.1,11.7-26.1,26.1s11.7,26.1,26.1,26.1h182.6v182.6c0,14.4,11.7,26.1,26.1,26.1s26.1-11.7,26.1-26.1V426.1h182.6
				c14.4,0,26.1-11.7,26.1-26.1S623.2,373.9,608.7,373.9z"/>
		</g>
	</g>
</g>
</svg>
